<svg width="103" height="121" viewBox="0 0 103 121" fill="none" xmlns="http://www.w3.org/2000/svg">
<circle cx="51.5" cy="51.5" r="51.5" fill="#008B74"/>
<path d="M51.5 94.125C60.4764 94.125 67.75 86.9074 67.75 78H54.2083C52.7187 78 51.5 76.7906 51.5 75.3125C51.5 73.8344 52.7187 72.625 54.2083 72.625H67.75V67.25H54.2083C52.7187 67.25 51.5 66.0406 51.5 64.5625C51.5 63.0844 52.7187 61.875 54.2083 61.875H67.75V56.3488H54.2083C52.7126 56.3488 51.5 55.1455 51.5 53.6613C51.5 52.1772 52.7126 50.9738 54.2083 50.9738L67.75 51.125C67.75 42.2176 60.4764 35 51.5 35C42.5235 35 35.25 42.2176 35.25 51.125V78C35.25 86.9023 42.3763 94.125 51.5 94.125ZM77.2291 67.25C74.9778 67.25 73.1666 69.0473 73.1666 71.1301V78C73.1666 90.3172 62.6769 100.239 50.095 99.4496C38.9096 98.7494 29.8333 88.2646 29.8333 77.1434V71.1301C29.8333 69.0473 28.0137 67.25 25.7708 67.25C23.528 67.25 21.7083 69.0473 21.7083 71.1301V76.5303C21.7083 91.5904 32.5366 105.018 47.4375 107.05V112.938H40.6666C37.5876 112.938 35.1078 115.487 35.2568 118.576C35.3228 119.959 36.5703 121 37.9583 121H65.0416C66.4334 121 67.6772 119.956 67.7432 118.576C67.8854 115.491 65.414 112.938 62.3333 112.938H55.5625V107.265C70.069 105.295 81.2916 92.9324 81.2916 78V71.1301C81.2916 69.0473 79.4804 67.25 77.2291 67.25Z" fill="#494949" fill-opacity="0.6"/>
</svg>
